<?xml version="1.0" standalone="no"?>
<!DOCTYPE svg PUBLIC "-//W3C//DTD SVG 1.1//EN" "http://www.w3.org/Graphics/SVG/1.1/DTD/svg11.dtd" >
<svg xmlns="http://www.w3.org/2000/svg">
<metadata>
This is a custom SVG webfont generated by Font Squirrel.
Copyright   : Copyright (c) 2009 by Jonathan Hill. All rights reserved.
Designer    : Jonathan Hill
Foundry     : Jonathan Hill
Foundry URL : http://www.thenorthernblock.co.uk
</metadata>
<defs>
<font id="webfont" horiz-adv-x="642" >
<font-face units-per-em="1000" ascent="800" descent="-200" />
<missing-glyph horiz-adv-x="300" />
<glyph unicode=" "  horiz-adv-x="300" />
<glyph unicode="&#x09;" horiz-adv-x="300" />
<glyph unicode="&#xa0;" horiz-adv-x="300" />
<glyph unicode="!" horiz-adv-x="302" d="M155 198h-83v381l122 119l58 -59l-97 -94v-347zM155 0h-105v36l105 114v-150z" />
<glyph unicode="&#x22;" horiz-adv-x="339" d="M289 679v-94l-111 -109v203h111zM160 679v-94l-110 -110v204h110z" />
<glyph unicode="#" horiz-adv-x="622" d="M283 377l-20 -81h78l19 81h-77zM50 219v77h131l8.5 42t7.5 39h-147v84h164l45 213h82l-42 -213h78l46 213h82l-42 -213h109v-84h-126l-20 -81h146v-77h-165l-52 -219h-85l52 219h-72l-51 -219h-85l51 219h-115z" />
<glyph unicode="$" d="M270 84v629h82v-750h-82v38h-220v83h220zM509 84v278h-70v82h153v-443h-153v83h70zM133 596v-152h51v-82h-134v318h134v-84h-51zM439 680h153v-84h-153v84z" />
<glyph unicode="%" horiz-adv-x="868" d="M272 456v136h-136v-136h136zM359 679v-310h-309v310h309zM630 679h104l-493 -679h-105zM732 87v137h-137v-137h137zM818 310v-310h-310v310h310z" />
<glyph unicode="&#x26;" horiz-adv-x="761" d="M257 417l60 -59v-68h-141l-43 -38v-125l44 -43h141v-83h-175l-93 93v190l97 89h39l-12 13v216l92 92h297v-83h-264l-42 -42v-152zM404 84h62l43 42v126l-43 38h-62v83h62l43 43v48h82v-78l-53 -53l53 -49v-157l44 -43h76v-83h-109l-52 51l-51 -51h-95v83z" />
<glyph unicode="'" horiz-adv-x="210" d="M160 679v-94l-110 -110v204h110z" />
<glyph unicode="(" horiz-adv-x="304" d="M133 554v-605l43 -43h78v-83h-110l-94 93v670l94 94h110v-84h-77z" />
<glyph unicode=")" horiz-adv-x="304" d="M171 -51v605l-44 42h-77v84h110l94 -94v-670l-94 -93h-110v83h77z" />
<glyph unicode="*" horiz-adv-x="565" d="M145 257l-49 66l90 90h-136v82h136l-90 89l49 68l97 -96v131h82v-133l103 98l47 -68l-90 -89h131v-82h-130l89 -90l-48 -66l-102 98v-134h-82v131z" />
<glyph unicode="+" horiz-adv-x="600" d="M341 302v-207h-83v207h-208v84h208v208h83v-208h209v-84h-209z" />
<glyph unicode="," horiz-adv-x="210" d="M160 130v-88l-110 -110v198h110z" />
<glyph unicode="-" horiz-adv-x="379" d="M50 318h279v-84h-279v84z" />
<glyph unicode="." horiz-adv-x="210" d="M50 0v111h110v-111h-110z" />
<glyph unicode="/" horiz-adv-x="491" d="M353 679h88l-302 -679h-89z" />
<glyph unicode="0" d="M509 84v616h83v-699h-376v83h293zM50 1v699h376v-83h-293v-616h-83zM215 292l211 211v-116l-211 -211v116z" />
<glyph unicode="1" horiz-adv-x="419" d="M369 534v-534h-82v534h82zM369 617h-240v-116h-79v199h319v-83z" />
<glyph unicode="2" d="M50 180l263 263h279v-82h-247l-212 -213v-65h453v-83h-536v180zM509 526v91h-459v83h542v-174h-83z" />
<glyph unicode="3" d="M50 617v83h376v-83h-376zM509 0v148l-191 191l191 192v169h83v-202l-158 -159l158 -159v-180h-83zM50 0v83h376v-83h-376z" />
<glyph unicode="4" d="M509 0v700h83v-700h-83zM50 700h83v-301l77 -81h216v-83h-249l-127 131v334z" />
<glyph unicode="5" d="M330 443l262 -263v-180h-542v83h459v65l-213 213h-246v82h280zM50 526v174h542v-83h-459v-91h-83z" />
<glyph unicode="6" d="M50 0v700h542v-207h-83v124h-376v-617h-83zM215 443h245l132 -130v-313h-377v83h294v197l-83 81h-211v82z" />
<glyph unicode="7" d="M592 534v-534h-83v534h83zM592 617h-459v-124h-83v207h542v-83z" />
<glyph unicode="8" d="M362 383l147 148v86h-293v83h376v-202l-158 -159l158 -159v-180h-83v148l-147 145v90zM133 148v-65h293v-83h-376v180l159 159l-159 159v202h83v-169l146 -148v-89z" />
<glyph unicode="9" d="M509 700h83v-700h-542v187h83v-104h376v617zM427 235h-246l-131 131v334h377v-83h-294v-219q77 -74 82 -80h212v-83z" />
<glyph unicode=":" horiz-adv-x="224" d="M50 324v125h124v-125h-124zM50 0v126h124v-126h-124z" />
<glyph unicode=";" horiz-adv-x="225" d="M50 324v125h124v-125h-124zM175 145v-99l-125 -124v223h125z" />
<glyph unicode="&#x3c;" horiz-adv-x="747" d="M641 595l37 -94l-404 -202l423 -210l-63 -76l-584 286z" />
<glyph unicode="=" horiz-adv-x="600" d="M50 220v99h500v-99h-500zM50 362v100h500v-100h-500z" />
<glyph unicode="&#x3e;" horiz-adv-x="745" d="M66 501l36 95l593 -297l-586 -286l-59 77l419 210z" />
<glyph unicode="?" horiz-adv-x="627" d="M135 153h-85v279h441v181h-441v87h527v-352h-442v-195zM160 123v-84l-110 -110v194h110z" />
<glyph unicode="@" horiz-adv-x="782" d="M732 241l-93 -92h-34v82l44 43v322h-516v-512h516v53h83v-136h-682v679h682v-439zM176 472v84h390v-407h-85v323h-305zM157 149v110l179 180l69 -51l-158 -157h149v-82h-239z" />
<glyph unicode="A" horiz-adv-x="660" d="M523 311h-244l85 85h159v134h87v-529h-87v310zM135 289v-288h-85v322l377 377h183v-85h-147z" />
<glyph unicode="B" horiz-adv-x="660" d="M610 513l-165 -163l165 -163v-186h-389v86h302v67l-196 196l196 197v67h-302v86h389v-187zM136 700v-699h-86v699h86z" />
<glyph unicode="C" horiz-adv-x="660" d="M220 614v86h390v-86h-390zM50 700h85v-699h-85v699zM221 87h389v-86h-389v86z" />
<glyph unicode="D" horiz-adv-x="660" d="M523 1v288l-327 325h-146v86h180l380 -377v-322h-87zM438 1h-388v528h85v-442h303v-86z" />
<glyph unicode="E" horiz-adv-x="660" d="M219 700h391v-204h-87v118h-304v86zM134 700l1 -304h247v-85h-247v-310h-85v699h84zM219 87h304v117h87v-203h-391v86z" />
<glyph unicode="F" horiz-adv-x="654" d="M135 396h237v-85h-237v-310h-85v528h85v-133zM604 700v-86h-554v86h554z" />
<glyph unicode="G" horiz-adv-x="660" d="M377 435l61 57l172 -169v-322h-390v86h303v202zM50 1v699h85v-699h-85zM220 700h390v-192h-87v106h-303v86z" />
<glyph unicode="H" horiz-adv-x="660" d="M135 311v-310h-85v699h85v-304h304v-85h-304zM524 700h86v-699h-86v699z" />
<glyph unicode="I" horiz-adv-x="185" d="M50 1v699h85v-699h-85z" />
<glyph unicode="J" horiz-adv-x="660" d="M610 614h-249v-106h-85v192h334v-86zM610 529v-528h-560v86h473v442h87z" />
<glyph unicode="K" horiz-adv-x="660" d="M50 373v327h85v-243h61l243 243h118l-281 -282l334 -332v-85h-87v51l-327 321h-146zM135 1h-85v287h85v-287z" />
<glyph unicode="L" horiz-adv-x="654" d="M50 700h86v-699h-86v699zM221 87h383v-86h-383v86z" />
<glyph unicode="M" horiz-adv-x="796" d="M746 614h-153l-197 -196l-199 196h-147v86h181l165 -163l162 163h188v-86zM746 1h-86v528h86v-528zM135 1h-85v528h85v-528z" />
<glyph unicode="N" horiz-adv-x="654" d="M50 614v86h181l373 -377v-322h-85v288l-322 325h-147zM136 1h-86v528h86v-528z" />
<glyph unicode="O" horiz-adv-x="654" d="M50 1v699h86v-613h298v-86h-384zM604 700v-699h-85v613h-298v86h383z" />
<glyph unicode="P" horiz-adv-x="660" d="M220 700h390v-187l-393 -391l-51 69l357 356v67h-303v86zM135 700v-699h-85v699h85z" />
<glyph unicode="Q" horiz-adv-x="660" d="M361 86l-34 33l59 59l92 -92h132v-86h-46l-58 -61l-61 61h-395v699h86v-613h225zM523 171v442h-302v86h389v-528h-87z" />
<glyph unicode="R" horiz-adv-x="654" d="M604 1h-85v153l-197 196l197 197v67h-298v86h383v-187l-164 -163l164 -163v-186zM136 1h-86v699h86v-699z" />
<glyph unicode="S" horiz-adv-x="660" d="M50 373v327h560v-86h-475v-241h-85zM524 1l-1 372h-303v84h390v-456h-86zM50 1v86h389v-86h-389z" />
<glyph unicode="T" horiz-adv-x="654" d="M604 700v-86h-554v86h554zM372 1h-85v528h85v-528z" />
<glyph unicode="U" horiz-adv-x="660" d="M135 1h-85v699h85v-699zM220 1v86h303v613h87v-699h-390z" />
<glyph unicode="V" horiz-adv-x="660" d="M50 87h146l327 325v288h87v-322l-380 -377h-180v86zM50 172v528h85v-528h-85z" />
<glyph unicode="W" horiz-adv-x="796" d="M746 87v-86h-188l-162 168l-165 -168h-181v86h147l199 202l197 -202h153zM746 172h-86v528h86v-528zM50 172v528h85v-528h-85z" />
<glyph unicode="X" horiz-adv-x="660" d="M523 210l-102 101h-52v85h58l96 95v209h87v-242l-108 -108l108 -107v-242h-87v209zM135 210v-209h-85v242l107 107l-107 108v242h85v-209l95 -95h54v-85h-48z" />
<glyph unicode="Y" horiz-adv-x="660" d="M610 458l-147 -147h-267l-146 147v242h85v-209l95 -95h197l96 95v209h87v-242zM372 1h-86v224h86v-224z" />
<glyph unicode="Z" horiz-adv-x="654" d="M519 700h85v-193l-420 -420h420v-86h-554v68l469 472v159zM90 614v86h343v-86h-343z" />
<glyph unicode="[" horiz-adv-x="304" d="M254 679v-84h-121v-690h121v-83h-204v857h204z" />
<glyph unicode="\" horiz-adv-x="491" d="M50 679h89l302 -679h-88z" />
<glyph unicode="]" horiz-adv-x="304" d="M50 595v84h204v-857h-204v83h121v690h-121z" />
<glyph unicode="^" horiz-adv-x="514" d="M256 717l208 -417h-101l-107 225l-113 -225h-93z" />
<glyph unicode="_" horiz-adv-x="600" d="M50 -180v84h500v-84h-500z" />
<glyph unicode="`" horiz-adv-x="210" d="M50 556v94h110v-202z" />
<glyph unicode="a" d="M50 459v83h542v-542h-375v83h292v376h-459zM50 0v131l238 239l67 -50l-222 -222v-98h-83z" />
<glyph unicode="b" d="M50 679h83v-596h291v-83h-374v679zM509 0v148l-355 350l59 61l379 -379v-180h-83z" />
<glyph unicode="c" d="M134 0h-84v542h84v-542zM219 0v83h373v-83h-373zM219 459v83h373v-83h-373z" />
<glyph unicode="d" d="M509 679h83v-679h-373v83h290v596zM50 0v180l379 382l52 -67l-348 -347v-148h-83z" />
<glyph unicode="e" d="M592 83v-83h-542v542h374v-83h-291v-376h459zM509 542h83v-132l-239 -238l-65 50l221 222v98z" />
<glyph unicode="f" horiz-adv-x="636" d="M132 286h230v-83h-230v-338h-82v510h82v-89zM586 543v-186h-82v103h-454v83h536z" />
<glyph unicode="g" d="M77 -52h432v512h-291v83h374v-678h-515v83zM133 543v-148l348 -347l-52 -66l-379 380v181h83z" />
<glyph unicode="h" d="M50 679h83v-679h-83v679zM509 0v148l-355 350l59 61l379 -379v-180h-83z" />
<glyph unicode="i" horiz-adv-x="302" d="M72 491h83v-347l97 -94l-58 -59l-122 119v381zM50 689h105v-150l-105 114v36z" />
<glyph unicode="j" horiz-adv-x="331" d="M177 484h82v-471l-150 -153l-59 54l127 129v441zM176 682h105v-36l-105 -114v150z" />
<glyph unicode="k" d="M50 361v318h83v-236h57l101 99h121l-143 -141l323 -318v-83h-83v44l-317 317h-142zM133 0h-83v276h83v-276z" />
<glyph unicode="l" horiz-adv-x="309" d="M259 50l-61 -62l-148 154v537h83v-503z" />
<glyph unicode="m" horiz-adv-x="779" d="M581 459l-193 -191l-191 191h-147v83h180l158 -158l159 158h182v-83h-148zM729 0h-84v374h84v-374zM133 0h-83v374h83v-374z" />
<glyph unicode="n" d="M50 459v83h181l361 -362v-180h-83v148l-311 311h-148zM133 0h-83v374h83v-374z" />
<glyph unicode="o" d="M592 542v-542h-83v459h-294v83h377zM50 0v542h82v-459h295v-83h-377z" />
<glyph unicode="p" d="M509 543h83v-181l-379 -378l-59 61l355 350v148zM426 543v-83h-293v-595h-83v678h376z" />
<glyph unicode="q" d="M592 -135h-83v595h-292v83h375v-678zM134 543l-1 -148l355 -350l-61 -61l-377 378v181h84z" />
<glyph unicode="r" d="M592 542v-181h-83v98h-459v83h542zM133 0h-83v376h83v-376z" />
<glyph unicode="s" d="M50 274v268h542v-83h-459v-185h-83zM509 0v274h-293v82h376v-356h-83zM50 0v83h376v-83h-376z" />
<glyph unicode="t" d="M133 83h459v-83h-542v376h83v-293zM50 459v220h83v-137h295v-83h-378z" />
<glyph unicode="u" d="M216 0v83h293v459h83v-542h-376zM50 0h83v542h-83v-542z" />
<glyph unicode="v" d="M50 83h142l317 317v142h83v-176l-367 -366h-175v83zM50 542h83v-376h-83v376z" />
<glyph unicode="w" horiz-adv-x="779" d="M729 0h-182l-159 158l-158 -158h-180v83h147l191 192l193 -192h148v-83zM645 542h84v-376h-84v376zM50 166v376h83v-376h-83z" />
<glyph unicode="x" d="M230 274l-97 -93v-181h-83v214l104 98l-104 104v126h83v-94q11 -12 46 -46l47 -46h58v-82h-54zM509 181l-96 93h-46v82h49l93 93v93h83v-126l-103 -104q85 -80 103 -98v-214h-83v181z" />
<glyph unicode="y" horiz-adv-x="636" d="M586 -136h-514v83h432v53h-93l-361 361v181h82v-152l312 -307h142v-219zM504 542h82v-376h-82v376z" />
<glyph unicode="z" horiz-adv-x="636" d="M522 542h54v-67l-394 -392h404v-83h-536v67zM88 459v83h316l-83 -83h-233z" />
<glyph unicode="{" horiz-adv-x="363" d="M109 374v212l94 94h110v-84h-77l-43 -42v-211l-54 -54l45 -40l9 -6v-294l42 -43h78v-83h-110l-94 93v292l-59 56v50z" />
<glyph unicode="|" horiz-adv-x="183" d="M50 -177v857h83v-857h-83z" />
<glyph unicode="}" horiz-adv-x="363" d="M252 586v-212l61 -60v-50l-61 -56v-292l-92 -93h-110v83h77l42 43v292l54 48l-54 54v211l-17 16q-17 16 -25 26h-77v84h110z" />
<glyph unicode="~" horiz-adv-x="611" d="M50 235l89 88h301l38 38v82h83v-115l-88 -88h-302l-37 -37v-83h-84v115z" />
<glyph unicode="&#xa1;" horiz-adv-x="302" d="M147 359h83v-381l-122 -119l-58 59l97 94v347zM147 557h105v-36l-105 -114v150z" />
<glyph unicode="&#xa2;" d="M279 542v64h83v-64h230v-83h-230v-376h230v-83h-230v-74h-83v74h-61v83h61v376h-61v83h61zM50 0v542h82v-542h-82z" />
<glyph unicode="&#xa3;" horiz-adv-x="731" d="M50 1v83h89v217h-88v84h88v295h83v-295h239v-84h-239v-300h-172zM308 680h373v-199h-83v115h-290v84zM308 84h290v115h83v-198h-373v83z" />
<glyph unicode="&#xa5;" d="M571 301h-499v84h37l-59 59v236h83v-204l91 -91h192l93 92v203h83v-236l-58 -59h37v-84zM72 262h499v-84h-209v-177h-83v177h-207v84z" />
<glyph unicode="&#xa7;" d="M509 -33v376h-291v83h374v-542h-542v83h459zM133 529v-289h290v-84h-373v456h542v-83h-459z" />
<glyph unicode="&#xa8;" horiz-adv-x="339" d="M24 501v111h110v-111h-110zM203 501v111h110v-111h-110z" />
<glyph unicode="&#xa9;" horiz-adv-x="783" d="M733 688v-679h-83v596h-435v83h518zM50 9v679h82v-596h433v-83h-515zM566 569v-86h-266v-261h266v-87h-351v434h351z" />
<glyph unicode="&#xaa;" horiz-adv-x="456" d="M50 598v83h356v-356h-356v102l155 155l69 -46l-129 -128h178v190h-273z" />
<glyph unicode="&#xab;" horiz-adv-x="622" d="M342 569l55 -54l-229 -234l226 -228l-50 -67l-294 294zM517 569l55 -54l-229 -234l226 -228l-49 -67l-293 294z" />
<glyph unicode="&#xad;" horiz-adv-x="379" d="M50 318h279v-84h-279v84z" />
<glyph unicode="&#xae;" horiz-adv-x="783" d="M566 136h-86v97l-120 121l120 120v9h-180v-347h-85v433h351v-131l-85 -84q74 -76 85 -85v-133zM733 688v-679h-83v596h-435v83h518zM50 9v679h82v-596h433v-83h-515z" />
<glyph unicode="&#xaf;" horiz-adv-x="599" d="M50 625v111h499v-111h-499z" />
<glyph unicode="&#xb0;" horiz-adv-x="392" d="M258 405v124h-125v-124h125zM342 612v-290h-292v290h292z" />
<glyph unicode="&#xb4;" horiz-adv-x="210" d="M160 648v-93l-110 -110v203h110z" />
<glyph unicode="&#xb6;" horiz-adv-x="529" d="M479 0h-83v595h-28v-595h-83v329h-103l-132 131v219h429v-679z" />
<glyph unicode="&#xb7;" horiz-adv-x="210" d="M50 289v110h110v-110h-110z" />
<glyph unicode="&#xb8;" horiz-adv-x="310" d="M50 -177v83h127v149h83v-232h-210z" />
<glyph unicode="&#xba;" horiz-adv-x="457" d="M323 408v189h-190v-189h190zM407 681v-356h-357v356h357z" />
<glyph unicode="&#xbb;" horiz-adv-x="622" d="M227 515l55 54l290 -289l-293 -294l-49 67l226 227zM50 515l56 54l291 -289l-294 -294l-50 67l227 227z" />
<glyph unicode="&#xbf;" horiz-adv-x="627" d="M492 407h85v-279h-441v-181h441v-87h-527v352h442v195zM467 437v84l110 110v-194h-110z" />
<glyph unicode="&#xc0;" horiz-adv-x="660" d="M273 846v97h112v-208zM523 311h-244l85 85h159v134h87v-529h-87v310zM135 289v-288h-85v322l377 377h183v-85h-147z" />
<glyph unicode="&#xc1;" horiz-adv-x="660" d="M385 944v-96l-112 -113v209h112zM279 311h244v-310h87v529h-87v-134h-159zM135 289l328 326h147v85h-183l-377 -377v-322h85v288z" />
<glyph unicode="&#xc2;" horiz-adv-x="660" d="M234 733l-76 47l133 127h79l135 -133l-85 -30l-85 82h-8zM279 311h244v-310h87v529h-87v-134h-159zM135 289l328 326h147v85h-183l-377 -377v-322h85v288z" />
<glyph unicode="&#xc3;" horiz-adv-x="660" d="M419 906h97q-31 -65 -81.5 -104.5t-103.5 -39.5q-56 0 -96 -61h-91q30 66 80 105.5t107 39.5q23 0 48.5 18t39.5 42zM523 311h-244l85 85h159v134h87v-529h-87v310zM135 289v-288h-85v322l377 377h183v-85h-147z" />
<glyph unicode="&#xc4;" horiz-adv-x="660" d="M523 311h-244l85 85h159v134h87v-529h-87v310zM135 289v-288h-85v322l377 377h183v-85h-147zM185 742v111h110v-111h-110zM364 742v111h110v-111h-110z" />
<glyph unicode="&#xc5;" horiz-adv-x="660" d="M330 863q-18 0 -30 -12.5t-12 -29.5t12 -28.5t30 -11.5q17 0 29 11.5t12 28.5t-12 29.5t-29 12.5zM330 944q53 0 88 -35t35 -88q0 -52 -35 -86.5t-88 -34.5q-55 0 -90 34t-35 87t35.5 88t89.5 35zM523 311h-244l85 85h159v134h87v-529h-87v310zM135 289v-288h-85v322 l377 377h183v-85h-147z" />
<glyph unicode="&#xc6;" horiz-adv-x="1131" d="M135 289v-288h-85v322l377 377h654v-204h-85v118h-535zM362 396h161v133h85v-133h248v-85h-248v-310h-85v310h-246zM693 87h303v117h85v-203h-388v86z" />
<glyph unicode="&#xc7;" horiz-adv-x="660" d="M135 0h-85v700h85v-700zM610 87h-390v-1v-1v-1v-1v-1v-1v-1v-1v-1v-1v-1v-1v-1v-1v-1v-1v-2v-1v-1v-1v-1v-1v-2v-1v-1v-2v-1v-1v-2v-1v-1v-2v-1v-2v-1v-2v-1v-2v-1v-2v-1v-2v-2v-1v-2v-2v-1v-2v-2v-1v-2v-2v-2v-1v-2v-2v-10h132v-99h-130v-85h215v184h173v86zM220 614v86 h390v-86h-390z" />
<glyph unicode="&#xc8;" horiz-adv-x="660" d="M273 847v97h112v-208zM219 700h391v-204h-87v118h-304v86zM134 700l1 -304h247v-85h-247v-310h-85v699h84zM219 87h304v117h87v-203h-391v86z" />
<glyph unicode="&#xc9;" horiz-adv-x="660" d="M385 948v-96l-112 -113v209h112zM219 700h391v-204h-87v118h-304v86zM134 700l1 -304h247v-85h-247v-310h-85v699h84zM219 87h304v117h87v-203h-391v86z" />
<glyph unicode="&#xca;" horiz-adv-x="660" d="M234 737l-75 46l132 128h79l135 -133l-85 -30l-85 82h-8zM610 700h-391v-86h304v-118h87v204zM135 396l-1 304h-84v-699h85v310h247v85h-247zM523 87h-304v-86h391v203h-87v-117z" />
<glyph unicode="&#xcb;" horiz-adv-x="660" d="M219 700h391v-204h-87v118h-304v86zM134 700l1 -304h247v-85h-247v-310h-85v699h84zM219 87h304v117h87v-203h-391v86zM185 742v111h110v-111h-110zM364 742v111h110v-111h-110z" />
<glyph unicode="&#xcc;" horiz-adv-x="213" d="M78 1v699h85v-699h-85zM50 847v97h113v-207z" />
<glyph unicode="&#xcd;" horiz-adv-x="213" d="M50 1v699h86v-699h-86zM163 945v-96l-113 -112v208h113z" />
<glyph unicode="&#xce;" horiz-adv-x="445" d="M177 1v699h85v-699h-85zM125 735l-75 46l131 128h79l135 -133l-84 -30l-85 82h-10z" />
<glyph unicode="&#xcf;" horiz-adv-x="346" d="M131 1v699h85v-699h-85zM30 742v111h110v-111h-110zM209 742v111h110v-111h-110z" />
<glyph unicode="&#xd1;" horiz-adv-x="687" d="M539 905h98q-31 -65 -81.5 -104.5t-103.5 -39.5q-58 0 -95 -61h-92q29 66 79 105.5t108 39.5q23 0 48 18t39 42zM50 614v86h181l373 -377v-322h-85v288l-322 325h-147zM136 1h-86v528h86v-528z" />
<glyph unicode="&#xd2;" horiz-adv-x="654" d="M271 845v97h112v-208zM50 1v699h86v-613h298v-86h-384zM604 700v-699h-85v613h-298v86h383z" />
<glyph unicode="&#xd3;" horiz-adv-x="654" d="M383 944v-97l-112 -111v208h112zM50 700v-699h384v86h-298v613h-86zM604 1v699h-383v-86h298v-613h85z" />
<glyph unicode="&#xd4;" horiz-adv-x="654" d="M230 737l-75 46l133 128h77l136 -133l-85 -30l-85 82h-8zM50 700v-699h384v86h-298v613h-86zM604 1v699h-383v-86h298v-613h85z" />
<glyph unicode="&#xd5;" horiz-adv-x="654" d="M417 948h97q-30 -62 -80.5 -102.5t-103.5 -40.5q-57 0 -96 -63h-91q29 67 79.5 107.5t107.5 40.5q22 0 47.5 17.5t39.5 40.5zM50 1v699h86v-613h298v-86h-384zM604 700v-699h-85v613h-298v86h383z" />
<glyph unicode="&#xd6;" horiz-adv-x="654" d="M50 1v699h86v-613h298v-86h-384zM604 700v-699h-85v613h-298v86h383zM185 742v111h110v-111h-110zM364 742v111h110v-111h-110z" />
<glyph unicode="&#xd7;" horiz-adv-x="512" d="M255 249l-146 -147l-59 59l147 148l-147 146l59 59l146 -148l148 148l59 -59l-148 -146l148 -148l-59 -59z" />
<glyph unicode="&#xd8;" horiz-adv-x="654" d="M50 88l469 -1v442h85v-528h-386l-18 -39h-90l15 39h-75v87zM203 174l158 355h92l-159 -355h-91zM136 174h-86v526h386l15 30h90l-12 -30h75v-86h-468v-440z" />
<glyph unicode="&#xd9;" horiz-adv-x="660" d="M273 847v97h112v-208zM135 1h-85v699h85v-699zM220 1v86h303v613h87v-699h-390z" />
<glyph unicode="&#xda;" horiz-adv-x="660" d="M385 944v-95l-112 -114v209h112zM135 1h-85v699h85v-699zM220 1v86h303v613h87v-699h-390z" />
<glyph unicode="&#xdb;" horiz-adv-x="660" d="M234 739l-75 46l132 129h79l136 -136l-85 -29l-86 82h-8zM135 1h-85v699h85v-699zM220 1v86h303v613h87v-699h-390z" />
<glyph unicode="&#xdc;" horiz-adv-x="660" d="M135 1h-85v699h85v-699zM220 1v86h303v613h87v-699h-390zM185 742v111h110v-111h-110zM364 742v111h110v-111h-110z" />
<glyph unicode="&#xdd;" horiz-adv-x="660" d="M385 851v-96l-112 -113v209h112zM610 458l-147 -147h-267l-146 147v242h85v-209l95 -95h197l96 95v209h87v-242zM372 1h-86v224h86v-224z" />
<glyph unicode="&#xdf;" horiz-adv-x="729" d="M306 680h373v-181l-158 -160l158 -158v-181h-373v83h290v66l-191 190l191 192v65h-290v84zM50 0v83h87v597h83v-680h-170z" />
<glyph unicode="&#xe0;" d="M265 699v92h110v-203zM50 459v83h542v-542h-375v83h292v376h-459zM50 0v131l238 239l67 -50l-222 -222v-98h-83z" />
<glyph unicode="&#xe1;" d="M375 795v-92l-110 -111v203h110zM50 542v-83h459v-376h-292v-83h375v542h-542zM50 131v-131h83v98l222 222l-67 50z" />
<glyph unicode="&#xe2;" d="M231 591l-77 43l130 127h76l131 -130l-83 -29l-82 78h-8q-75 -75 -87 -89zM50 459v83h542v-542h-375v83h292v376h-459zM50 0v131l238 239l67 -50l-222 -222v-98h-83z" />
<glyph unicode="&#xe3;" d="M409 796h94q-31 -62 -79.5 -101.5t-99.5 -39.5q-58 0 -93 -59h-90q28 65 77.5 104t105.5 39q21 0 46 17t39 40zM50 459v83h542v-542h-375v83h292v376h-459zM50 0v131l238 239l67 -50l-222 -222v-98h-83z" />
<glyph unicode="&#xe4;" d="M50 459v83h542v-542h-375v83h292v376h-459zM50 0v131l238 239l67 -50l-222 -222v-98h-83zM176 597v111h110v-111h-110zM355 597v111h110v-111h-110z" />
<glyph unicode="&#xe5;" d="M322 751q-17 0 -29 -11t-12 -27q0 -17 12 -28.5t29 -11.5q16 0 27.5 11.5t11.5 28.5q0 16 -11.5 27t-27.5 11zM322 831q50 0 84.5 -34t34.5 -84q0 -51 -34.5 -85.5t-84.5 -34.5q-54 0 -88.5 34t-34.5 86q0 51 34.5 84.5t88.5 33.5zM50 459v83h542v-542h-375v83h292v376 h-459zM50 0v131l238 239l67 -50l-222 -222v-98h-83z" />
<glyph unicode="&#xe6;" horiz-adv-x="1102" d="M1052 83v-83h-833v83h290v376h-459v83h832v-83h-289v-376h459zM968 542h84v-132l-239 -238l-67 50l222 222v98zM50 0v131l238 239l66 -50l-221 -222v-98h-83z" />
<glyph unicode="&#xe7;" d="M133 0h-83v542h83v-542zM592 83h-377v-1v-1v-1v-1v-1v-1v-1v-1v-1v-1v-1v-1v-1v-1v-1v-1v-1v-1v-1v-2v-1v-1v-1v-2v-1v-1v-2v-1v-1v-2v-1v-2v-1v-2v-1v-2v-1v-2v-1v-2v-2v-1v-2v-2v-1v-2v-2v-1v-2v-2v-2v-2v-1v-2v-10h128v-94h-127v-83h210v177h166v83zM215 459v83h377 v-83h-377z" />
<glyph unicode="&#xe8;" d="M265 701v92h110v-203zM592 83v-83h-542v542h374v-83h-291v-376h459zM509 542h83v-132l-239 -238l-65 50l221 222v98z" />
<glyph unicode="&#xe9;" d="M375 792v-92l-110 -111v203h110zM592 0v83h-459v376h291v83h-374v-542h542zM592 542h-83v-98l-221 -222l65 -50l239 238v132z" />
<glyph unicode="&#xea;" d="M231 590l-77 44l130 126h76l131 -130l-83 -29l-82 78h-8q-75 -75 -87 -89zM592 0v83h-459v376h291v83h-374v-542h542zM592 542h-83v-98l-221 -222l65 -50l239 238v132z" />
<glyph unicode="&#xeb;" d="M592 83v-83h-542v542h374v-83h-291v-376h459zM509 542h83v-132l-239 -238l-65 50l221 222v98zM176 597v111h110v-111h-110zM355 597v111h110v-111h-110z" />
<glyph unicode="&#xec;" horiz-adv-x="301" d="M71 491h83v-347l97 -94l-58 -59l-122 119v381zM50 689h105v-150l-105 114v36z" />
<glyph unicode="&#xed;" horiz-adv-x="282" d="M135 491h-83v-381l122 -119l58 59l-97 94v347zM50 689h105v-36l-105 -114v150z" />
<glyph unicode="&#xee;" horiz-adv-x="440" d="M125 510l-75 44l131 126h76l133 -133l-85 -29l-82 81h-9zM258 491h-83v-381l122 -119l58 59l-97 94v347z" />
<glyph unicode="&#xef;" horiz-adv-x="353" d="M124 515h83v-371l96 -96l-57 -59l-122 121v405zM25 568v111h110v-111h-110zM204 568v111h110v-111h-110z" />
<glyph unicode="&#xf1;" horiz-adv-x="692" d="M546 743h96q-32 -62 -80 -101t-99 -39q-58 0 -93 -61h-90q28 66 77 105t106 39q21 0 45.5 17t37.5 40zM50 459v83h181l361 -362v-180h-83v148l-311 311h-148zM133 0h-83v374h83v-374z" />
<glyph unicode="&#xf2;" d="M265 703v92h110v-203zM592 542v-542h-83v459h-294v83h377zM50 0v542h82v-459h295v-83h-377z" />
<glyph unicode="&#xf3;" d="M375 794v-92l-110 -111v203h110zM592 0v542h-377v-83h294v-459h83zM50 542v-542h377v83h-295v459h-82z" />
<glyph unicode="&#xf4;" d="M231 589l-77 44l130 126h76l131 -130l-83 -29l-82 78h-8zM592 0v542h-377v-83h294v-459h83zM50 542v-542h377v83h-295v459h-82z" />
<glyph unicode="&#xf5;" d="M409 791h95q-32 -62 -80.5 -101t-99.5 -39q-58 0 -93 -60h-90q28 65 77.5 104.5t105.5 39.5q22 0 46.5 16.5t38.5 39.5zM592 542v-542h-83v459h-294v83h377zM50 0v542h82v-459h295v-83h-377z" />
<glyph unicode="&#xf6;" d="M592 542v-542h-83v459h-294v83h377zM50 0v542h82v-459h295v-83h-377zM176 597v111h110v-111h-110zM355 597v111h110v-111h-110z" />
<glyph unicode="&#xf7;" horiz-adv-x="600" d="M550 388v-85h-500v85h500zM247 168v111h110v-111h-110zM247 409v111h110v-111h-110z" />
<glyph unicode="&#xf8;" d="M50 0v83h459v290h83v-373h-379q-2 -6 -7 -17t-6 -15h-89l14 32h-75zM50 169v373h316l14 31h90l-14 -31h136v-83h-459v-290h-83zM289 373h91l-89 -204h-92z" />
<glyph unicode="&#xf9;" d="M265 700v92h110v-203zM216 0v83h293v459h83v-542h-376zM50 0h83v542h-83v-542z" />
<glyph unicode="&#xfa;" d="M375 793v-92l-110 -111v203h110zM216 0v83h293v459h83v-542h-376zM50 0h83v542h-83v-542z" />
<glyph unicode="&#xfb;" d="M231 591l-77 44l130 126h76l131 -130l-83 -29l-82 78h-8q-75 -75 -87 -89zM216 0v83h293v459h83v-542h-376zM50 0h83v542h-83v-542z" />
<glyph unicode="&#xfc;" d="M216 0v83h293v459h83v-542h-376zM133 0h-83v542h83v-542zM176 597v111h110v-111h-110zM355 597v111h110v-111h-110z" />
<glyph unicode="&#xfd;" horiz-adv-x="636" d="M372 680v-94l-110 -110v204h110zM72 -136h514v219h-142l-312 307v152h-82v-181l361 -361h93v-53h-432v-83zM586 542h-82v-376h82v376z" />
<glyph unicode="&#xff;" horiz-adv-x="636" d="M586 -136h-514v83h432v53h-93l-361 361v181h82v-152l312 -307h142v-219zM504 542h82v-376h-82v376zM176 597v111h110v-111h-110zM355 597v111h110v-111h-110z" />
<glyph unicode="&#x152;" horiz-adv-x="1125" d="M517 1v613h-297v86h383v-304h247v-85h-248v-310h-85zM50 1v699h84v-613h297v-86h-381zM689 700h386v-204h-85v118h-301v86zM689 87h301v117h85v-203h-386v86z" />
<glyph unicode="&#x153;" horiz-adv-x="1101" d="M508 0v459h-290v83h662v-83h-287v-376h458v-83h-543zM132 542l1 -459h289v-83h-372v542h82zM967 542h84v-132l-239 -238l-67 50l222 222v98z" />
<glyph unicode="&#x178;" horiz-adv-x="660" d="M610 458l-147 -147h-267l-146 147v242h85v-209l95 -95h197l96 95v209h87v-242zM372 1h-86v224h86v-224zM183 705v111h110v-111h-110zM362 705v111h110v-111h-110z" />
<glyph unicode="&#x2c6;" horiz-adv-x="440" d="M125 475l-75 45l131 126h76l133 -133l-85 -28l-82 81h-8z" />
<glyph unicode="&#x2dc;" horiz-adv-x="462" d="M316 645h96q-31 -62 -80 -101.5t-100 -39.5q-57 0 -95 -58h-87q27 64 76.5 102.5t105.5 38.5q21 0 46 17.5t38 40.5z" />
<glyph unicode="&#x2000;" horiz-adv-x="474" />
<glyph unicode="&#x2001;" horiz-adv-x="948" />
<glyph unicode="&#x2002;" horiz-adv-x="474" />
<glyph unicode="&#x2003;" horiz-adv-x="948" />
<glyph unicode="&#x2004;" horiz-adv-x="316" />
<glyph unicode="&#x2005;" horiz-adv-x="237" />
<glyph unicode="&#x2006;" horiz-adv-x="158" />
<glyph unicode="&#x2007;" horiz-adv-x="158" />
<glyph unicode="&#x2008;" horiz-adv-x="118" />
<glyph unicode="&#x2009;" horiz-adv-x="189" />
<glyph unicode="&#x200a;" horiz-adv-x="52" />
<glyph unicode="&#x2010;" horiz-adv-x="379" d="M50 318h279v-84h-279v84z" />
<glyph unicode="&#x2011;" horiz-adv-x="379" d="M50 318h279v-84h-279v84z" />
<glyph unicode="&#x2013;" horiz-adv-x="600" d="M50 318h500v-84h-500v84z" />
<glyph unicode="&#x2014;" horiz-adv-x="1043" d="M50 318h943v-84h-943v84z" />
<glyph unicode="&#x2018;" horiz-adv-x="211" d="M50 585v94h111v-204z" />
<glyph unicode="&#x2019;" horiz-adv-x="211" d="M161 679v-94l-111 -110v204h111z" />
<glyph unicode="&#x201a;" horiz-adv-x="210" d="M160 130v-88l-110 -110v198h110z" />
<glyph unicode="&#x201c;" horiz-adv-x="341" d="M50 585v94h111v-204zM180 585v94h111v-204z" />
<glyph unicode="&#x201d;" horiz-adv-x="341" d="M291 679v-94l-111 -110v204h111zM161 679v-94l-111 -110v204h111z" />
<glyph unicode="&#x201e;" horiz-adv-x="341" d="M291 130v-94l-111 -110v204h111zM161 130v-94l-111 -110v204h111z" />
<glyph unicode="&#x2022;" horiz-adv-x="358" d="M50 165v258h258v-258h-258z" />
<glyph unicode="&#x2026;" horiz-adv-x="807" d="M50 0v111h111v-111h-111zM350 0v111h109v-111h-109zM647 0v111h110v-111h-110z" />
<glyph unicode="&#x202f;" horiz-adv-x="189" />
<glyph unicode="&#x2039;" horiz-adv-x="445" d="M340 569l55 -54l-229 -234l226 -228l-49 -67l-293 294z" />
<glyph unicode="&#x203a;" horiz-adv-x="445" d="M50 515l55 54l290 -289l-293 -294l-49 67l226 227z" />
<glyph unicode="&#x205f;" horiz-adv-x="237" />
<glyph unicode="&#x20ac;" d="M50 1v679h83v-220h438v-84h-438v-64h438v-83h-438v-228h-83zM219 680h373v-199h-83v115h-290v84zM592 199v-198h-373v83h290v115h83z" />
<glyph unicode="&#x2122;" horiz-adv-x="894" d="M385 679v-139h-81v57h-44v-335h-82v335h-47v-57h-81v139h335zM844 262h-82v335h-13l-112 -113l-117 113h-9v-335h-81v417h123l83 -83l82 83h126v-417z" />
</font>
</defs>
</svg>
